<svg width="220" height="250" viewBox="0 0 220 250" fill="none" xmlns="http://www.w3.org/2000/svg">
  <rect width="220" height="250" rx="14" fill="#FFFFFF"/>
  <rect x="18" y="18" width="184" height="184" rx="8" fill="#F8FAFC" stroke="#DDE7F3"/>
  <g fill="#111827">
    <rect x="34" y="34" width="18" height="18"/><rect x="52" y="34" width="18" height="18"/><rect x="70" y="34" width="18" height="18"/>
    <rect x="34" y="52" width="18" height="18"/><rect x="70" y="52" width="18" height="18"/>
    <rect x="34" y="70" width="18" height="18"/><rect x="52" y="70" width="18" height="18"/><rect x="70" y="70" width="18" height="18"/>

    <rect x="132" y="34" width="18" height="18"/><rect x="150" y="34" width="18" height="18"/><rect x="168" y="34" width="18" height="18"/>
    <rect x="132" y="52" width="18" height="18"/><rect x="168" y="52" width="18" height="18"/>
    <rect x="132" y="70" width="18" height="18"/><rect x="150" y="70" width="18" height="18"/><rect x="168" y="70" width="18" height="18"/>

    <rect x="34" y="132" width="18" height="18"/><rect x="52" y="132" width="18" height="18"/><rect x="70" y="132" width="18" height="18"/>
    <rect x="34" y="150" width="18" height="18"/><rect x="70" y="150" width="18" height="18"/>
    <rect x="34" y="168" width="18" height="18"/><rect x="52" y="168" width="18" height="18"/><rect x="70" y="168" width="18" height="18"/>

    <rect x="96" y="96" width="18" height="18"/><rect x="114" y="96" width="18" height="18"/><rect x="132" y="96" width="18" height="18"/>
    <rect x="96" y="114" width="18" height="18"/><rect x="132" y="114" width="18" height="18"/><rect x="150" y="114" width="18" height="18"/>
    <rect x="96" y="132" width="18" height="18"/><rect x="114" y="132" width="18" height="18"/><rect x="150" y="132" width="18" height="18"/>
    <rect x="96" y="150" width="18" height="18"/><rect x="114" y="150" width="18" height="18"/><rect x="132" y="150" width="18" height="18"/><rect x="150" y="150" width="18" height="18"/>
    <rect x="114" y="168" width="18" height="18"/><rect x="150" y="168" width="18" height="18"/>
  </g>
  <text x="110" y="225" text-anchor="middle" font-family="Arial, sans-serif" font-size="16" font-weight="700" fill="#155EEF">Quét mã QR để thanh toán</text>
</svg>
